# xmcd
#
# Track frame offsets:
#	150
#	18810
#	40509
#	63359
#	79781
#	93423
#	115119
#	130177
#	145245
#	166510
#	181721
#
# Disc length: 2580 seconds
#
# Revision: 0
# Processed by: cddbd v1.5.1PL2 Copyright (c) Steve Scherf et al.
# Submitted via: dBpowerAMP V4.0
#
DISCID=780a120b
DTITLE=Frank Light - Faith In Atlanta
DYEAR=2006
DGENRE=Country
TTITLE0=Center Stage
TTITLE1=Little Rivers
TTITLE2=Faith In Atlanta
TTITLE3=Fools Like Us
TTITLE4=Chickasaw Road
TTITLE5=Daddy's Little Soldier
TTITLE6=Oh Yeah You Do
TTITLE7=Couldn't Make Her Stay
TTITLE8=Easy To Love
TTITLE9=My Saving Grace
TTITLE10=Shanty
EXTD=www.franklight.com
EXTT0=
EXTT1=
EXTT2=
EXTT3=
EXTT4=
EXTT5=
EXTT6=
EXTT7=
EXTT8=
EXTT9=
EXTT10=
PLAYORDER=
